<svg xmlns="http://www.w3.org/2000/svg" xmlns:xlink="http://www.w3.org/1999/xlink" width="71" height="71" viewBox="0 0 71 71">
  <defs>
    <linearGradient id="linear-gradient" x1="0.5" y1="1" x2="0.5" gradientUnits="objectBoundingBox">
      <stop offset="0" stop-color="#f95500"/>
      <stop offset="1" stop-color="#ff8500"/>
    </linearGradient>
  </defs>
  <g id="birds_ef" transform="translate(-104 -1813)">
    <circle id="Ellipse_30" data-name="Ellipse 30" cx="35.5" cy="35.5" r="35.5" transform="translate(104 1813)" fill="url(#linear-gradient)"/>
    <path id="hummingbird" d="M39.56,33.138c-.021-.253-.386-.432-.859-.405-.72.042-1.53.1-2.312.151-1.591.109-3.237.222-4.2.222a5.051,5.051,0,0,1-.649-.03,4.034,4.034,0,0,1-1.19-.692A7.636,7.636,0,0,0,26.092,30.6a4.261,4.261,0,0,0-.9.1c-1.712.372-2.826,1.981-3.81,3.4-.773,1.116-1.441,2.081-2.225,2.224a1.29,1.29,0,0,1-.227.017c-1.238,0-4.569-1.1-7.791-2.172a44.434,44.434,0,0,0-7.129-2.036c-1-.061-1.553.1-1.659.467s.288.79.511.928a5.778,5.778,0,0,0,.589.305A3.621,3.621,0,0,1,5.593,36c.187.467.717.681,1.279.908.623.252,1.267.512,1.406,1.134.174.776,1.256,1.285,2.052,1.631C8.777,40.707,4.412,43.8,2.721,47.07A19.262,19.262,0,0,1,.943,49.775c-.671.9-1.076,1.437-.9,1.784.093.187.338.274.771.274a23.573,23.573,0,0,0,4.251-.745c.661-.152,1.38-.3,2.142-.458a31.387,31.387,0,0,0,6.25-1.7c-1.745,2.751-5.042,7.042-7.476,10.208a45.393,45.393,0,0,0-3.1,4.209.211.211,0,0,0,.02.193.177.177,0,0,0,.15.067c.674,0,4.813-3.317,6.021-4.622l.1-.108c-.166.289-.42.692-.612,1a10.238,10.238,0,0,0-.533.888c-.186.453-.228.7-.138.837a.215.215,0,0,0,.185.093c.358,0,1.136-.7,2.283-1.779.387-.362.758-.71,1.029-.936-.035.074-.074.153-.109.225-.339.692-.433.926-.36,1.044a.137.137,0,0,0,.118.065h0a.175.175,0,0,0,.032,0A14.439,14.439,0,0,0,14.712,56.5a14.7,14.7,0,0,1,5.969-5.831,20.266,20.266,0,0,0,3.358-2.415c3.6-3.356,3.537-6.154,3.493-8.005a2.8,2.8,0,0,1,.214-1.612,41.025,41.025,0,0,1,2.932-3.381c.509-.4,2.86-.76,5.35-1.146.886-.137,1.8-.279,2.69-.43C39.479,33.546,39.573,33.283,39.56,33.138Z" transform="translate(120.716 1803.789)" fill="#fff"/>
  </g>
</svg>
