<svg xmlns="http://www.w3.org/2000/svg" width="89" height="89" viewBox="0 0 89 89">
  <g id="cross" transform="translate(-2085 -3472)">
    <circle id="Ellipse_22" data-name="Ellipse 22" cx="44.5" cy="44.5" r="44.5" transform="translate(2085 3472)" fill="#fff"/>
    <g id="Group_30" data-name="Group 30" transform="translate(2110.427 3497.552)">
      <path id="Path_11" data-name="Path 11" d="M-974.906,434.707a2.406,2.406,0,0,1,.05,3.4,2.4,2.4,0,0,1-1.726.732,2.4,2.4,0,0,1-1.676-.681L-993.4,423.467l-15.144,14.694a2.4,2.4,0,0,1-1.676.681,2.4,2.4,0,0,1-1.726-.732,2.406,2.406,0,0,1,.05-3.4l15.039-14.594-15.039-14.594a2.406,2.406,0,0,1-.05-3.4,2.406,2.406,0,0,1,3.4-.051l15.144,14.694,15.142-14.694a2.4,2.4,0,0,1,3.4.051,2.406,2.406,0,0,1-.05,3.4l-15.039,14.594Z" transform="translate(1012.627 -401.385)" fill="#1d1c22"/>
    </g>
  </g>
</svg>
