<svg xmlns="http://www.w3.org/2000/svg" xmlns:xlink="http://www.w3.org/1999/xlink" width="71" height="71" viewBox="0 0 71 71">
  <defs>
    <linearGradient id="linear-gradient" x1="0.5" y1="1" x2="0.5" gradientUnits="objectBoundingBox">
      <stop offset="0" stop-color="#f95500"/>
      <stop offset="1" stop-color="#ff8500"/>
    </linearGradient>
  </defs>
  <g id="fire_ef" transform="translate(-514 -1036)">
    <circle id="Ellipse_27" data-name="Ellipse 27" cx="35.5" cy="35.5" r="35.5" transform="translate(514 1036)" fill="url(#linear-gradient)"/>
    <g id="flame" transform="translate(423.129 1053.745)">
      <path id="Path_30" data-name="Path 30" d="M120.773,36.462a.394.394,0,0,0,.514-.561,9.027,9.027,0,0,1-.519-8.946c2.982-6.666,4.8-10.119,4.8-10.119a24,24,0,0,0,3.581,7.611c2.518,3.448,3.9,7.784,1.674,11.4a.394.394,0,0,0,.513.558,11.148,11.148,0,0,0,6.183-9.845,19.213,19.213,0,0,0-1.026-7.15c-1.237-3.842-2.759-5.635-3.639-6.405a.394.394,0,0,0-.651.323c.256,4.146-1.3,5.2-2.191,2.827a14.51,14.51,0,0,1-.561-4.58,15.66,15.66,0,0,0-3.088-9.517A10.779,10.779,0,0,0,124.42.083a.394.394,0,0,0-.633.34c.163,2.251.015,8.7-5.645,16.411-5.132,7.15-3.144,12.641-2.438,14.129A11.64,11.64,0,0,0,120.773,36.462Z" transform="translate(0 0)" fill="#fff"/>
    </g>
  </g>
</svg>
