<svg id="forward" xmlns="http://www.w3.org/2000/svg" width="112" height="124.993" viewBox="0 0 112 124.993">
  <g id="Group_21" data-name="Group 21" transform="translate(0 0)">
    <g id="Layer_8" data-name="Layer 8">
      <g id="Group_20" data-name="Group 20">
        <path id="Path_6" data-name="Path 6" d="M-1337,131.383a56.062,56.062,0,0,0,56,56,56.061,56.061,0,0,0,56-56,2.354,2.354,0,0,0-2.353-2.353,2.354,2.354,0,0,0-2.353,2.353A51.354,51.354,0,0,1-1281,182.677a51.354,51.354,0,0,1-51.294-51.294,51.353,51.353,0,0,1,49.412-51.257V91.5a1.583,1.583,0,0,0,.8,1.374,1.586,1.586,0,0,0,.8.212,1.581,1.581,0,0,0,.791-.212l15.892-11.548V91.5a1.593,1.593,0,0,0,.8,1.374,1.6,1.6,0,0,0,.8.212,1.612,1.612,0,0,0,.8-.212l18.936-13.76a1.587,1.587,0,0,0,.8-1.374,1.587,1.587,0,0,0-.8-1.374l-18.936-13.76a1.6,1.6,0,0,0-1.591,0,1.593,1.593,0,0,0-.8,1.374V74.15L-1280.5,62.6a1.591,1.591,0,0,0-1.586,0,1.583,1.583,0,0,0-.8,1.374V75.421A56.054,56.054,0,0,0-1337,131.383Z" transform="translate(1337 -62.39)" fill="#1d1c22"/>
      </g>
    </g>
  </g>
  <g id="Group_24" data-name="Group 24" transform="translate(33.028 53.237)">
    <g id="Group_22" data-name="Group 22" transform="translate(0)">
      <path id="Path_7" data-name="Path 7" d="M-1265.229,176.019h3v36.035h-4.038V180.21l-6.747,2.1-.971-3.272Z" transform="translate(1274.272 -175.784)" fill="#1d1c22"/>
      <path id="Path_8" data-name="Path 8" d="M-1262.317,212.025h-4.509v-31.76l-6.67,2.072-1.1-3.716,9.043-3.1h3.238Zm-4.038-.471h3.568V175.99h-2.728l-8.5,2.929.839,2.827,6.824-2.12Z" transform="translate(1274.598 -175.519)" fill="#1d1c22"/>
    </g>
    <g id="Group_23" data-name="Group 23" transform="translate(19.54 0.256)">
      <path id="Path_9" data-name="Path 9" d="M-1229.01,176.562h20.568v3.731h-17.041l-.767,11.449a21.193,21.193,0,0,1,3.195-1.15,15,15,0,0,1,3.859-.434,14.955,14.955,0,0,1,4.855.767,12.1,12.1,0,0,1,3.922,2.173,9.728,9.728,0,0,1,2.607,3.45,10.967,10.967,0,0,1,.933,4.6,12.125,12.125,0,0,1-.933,4.83,10.946,10.946,0,0,1-2.607,3.731,11.52,11.52,0,0,1-4.024,2.4,15.18,15.18,0,0,1-5.162.844,15.706,15.706,0,0,1-7.079-1.61,21.5,21.5,0,0,1-5.7-4.064l2.658-2.914a20.316,20.316,0,0,0,4.881,3.6,11.406,11.406,0,0,0,5.29,1.3,10.135,10.135,0,0,0,3.5-.588,7.755,7.755,0,0,0,2.735-1.661,7.8,7.8,0,0,0,1.763-2.53,7.867,7.867,0,0,0,.639-3.194,7.211,7.211,0,0,0-.639-3.067,6.869,6.869,0,0,0-1.815-2.377,8.654,8.654,0,0,0-2.811-1.559,11.117,11.117,0,0,0-3.629-.562,13.349,13.349,0,0,0-4.115.588,19.625,19.625,0,0,0-3.4,1.457l-2.709-1.789Z" transform="translate(1232.709 -176.327)" fill="#1d1c22"/>
      <path id="Path_10" data-name="Path 10" d="M-1219.971,212.926a16.011,16.011,0,0,1-7.184-1.634,21.844,21.844,0,0,1-5.761-4.108l-.159-.159,2.974-3.259.174.17a20.175,20.175,0,0,0,4.825,3.562,11.217,11.217,0,0,0,5.182,1.278,9.941,9.941,0,0,0,3.421-.574,7.557,7.557,0,0,0,2.653-1.61,7.612,7.612,0,0,0,1.71-2.455,7.671,7.671,0,0,0,.619-3.1,7.015,7.015,0,0,0-.617-2.968,6.676,6.676,0,0,0-1.753-2.3,8.461,8.461,0,0,0-2.736-1.516,10.931,10.931,0,0,0-3.552-.55,13.163,13.163,0,0,0-4.042.576,19.5,19.5,0,0,0-3.359,1.439l-.124.068-2.941-1.942,1.043-17.786h21.025v4.2h-17.056l-.726,10.842a21.338,21.338,0,0,1,2.872-1,15.281,15.281,0,0,1,3.92-.443,15.258,15.258,0,0,1,4.932.779,12.389,12.389,0,0,1,4,2.215,10,10,0,0,1,2.669,3.532,11.237,11.237,0,0,1,.955,4.7,12.408,12.408,0,0,1-.953,4.923,11.235,11.235,0,0,1-2.662,3.81,11.815,11.815,0,0,1-4.105,2.451A15.494,15.494,0,0,1-1219.971,212.926Zm-12.452-5.917a21.388,21.388,0,0,0,5.478,3.861,15.535,15.535,0,0,0,6.975,1.586,15.024,15.024,0,0,0,5.083-.83,11.345,11.345,0,0,0,3.944-2.353,10.761,10.761,0,0,0,2.551-3.652,11.937,11.937,0,0,0,.914-4.737,10.773,10.773,0,0,0-.912-4.5,9.532,9.532,0,0,0-2.544-3.368,11.92,11.92,0,0,0-3.846-2.13,14.783,14.783,0,0,0-4.78-.754,14.825,14.825,0,0,0-3.8.426,21.041,21.041,0,0,0-3.159,1.137l-.358.162.808-12.061h17.026v-3.261h-20.111l-1,17.073,2.478,1.636a20.084,20.084,0,0,1,3.314-1.406,13.622,13.622,0,0,1,4.187-.6,11.4,11.4,0,0,1,3.705.575,8.922,8.922,0,0,1,2.887,1.6,7.136,7.136,0,0,1,1.876,2.457,7.489,7.489,0,0,1,.661,3.166,8.14,8.14,0,0,1-.659,3.289,8.062,8.062,0,0,1-1.817,2.606,8.017,8.017,0,0,1-2.817,1.712,10.423,10.423,0,0,1-3.582.6,11.686,11.686,0,0,1-5.4-1.33,20.48,20.48,0,0,1-4.763-3.475Z" transform="translate(1233.075 -176.062)" fill="#1d1c22"/>
    </g>
  </g>
</svg>
