<svg xmlns="http://www.w3.org/2000/svg" xmlns:xlink="http://www.w3.org/1999/xlink" width="71" height="71" viewBox="0 0 71 71">
  <defs>
    <linearGradient id="linear-gradient" x1="0.5" y1="1" x2="0.5" gradientUnits="objectBoundingBox">
      <stop offset="0" stop-color="#f95500"/>
      <stop offset="1" stop-color="#ff8500"/>
    </linearGradient>
  </defs>
  <g id="leaves_ef" transform="translate(-991 -1295)">
    <circle id="Ellipse_28" data-name="Ellipse 28" cx="35.5" cy="35.5" r="35.5" transform="translate(991 1295)" fill="url(#linear-gradient)"/>
    <g id="leaf" transform="translate(934.896 1312.505)">
      <path id="Path_31" data-name="Path 31" d="M100.031,0A20.855,20.855,0,0,1,93.8,4.075C69.827,12.746,79.938,29.643,80.268,29.7a13.8,13.8,0,0,1,3.16-3.676C94.951,17.552,97.293,7.8,97.293,7.8S94.707,19.534,84.456,26.835c-2.264,1.612-3.8,5.58-4.446,9.546,0,0,1.6-.648,2.3-.824a12.77,12.77,0,0,1,1.783-4.94c14.328,1.706,19.02-9.839,19.633-13.865A24.871,24.871,0,0,0,100.031,0Z" transform="translate(0)" fill="#fff"/>
    </g>
  </g>
</svg>
