<svg xmlns="http://www.w3.org/2000/svg" width="117" height="117" viewBox="0 0 117 117">
  <g id="lock" transform="translate(-1014 -1041)">
    <circle id="Ellipse_1" data-name="Ellipse 1" cx="58.5" cy="58.5" r="58.5" transform="translate(1014 1041)" fill="#c9ccd5"/>
    <path id="locked" d="M43.748,20.509V14.785C43.748,6.633,36.429,0,27.433,0S11.118,6.633,11.118,14.785v5.723A7.378,7.378,0,0,0,5,27.766V47.693a7.38,7.38,0,0,0,7.371,7.37H42.495a7.38,7.38,0,0,0,7.371-7.371V27.765A7.378,7.378,0,0,0,43.748,20.509ZM13.157,14.785c0-7.029,6.4-12.746,14.276-12.746S41.709,7.757,41.709,14.785v5.608H13.157ZM31.512,38.748a4.079,4.079,0,1,1-8.157,0V32.63a4.079,4.079,0,0,1,8.157,0Z" transform="translate(1045 1072.091)" fill="#fff"/>
  </g>
</svg>
