<svg xmlns="http://www.w3.org/2000/svg" xmlns:xlink="http://www.w3.org/1999/xlink" width="71" height="71" viewBox="0 0 71 71">
  <defs>
    <linearGradient id="linear-gradient" x1="0.5" y1="1" x2="0.5" gradientUnits="objectBoundingBox">
      <stop offset="0" stop-color="#f95500"/>
      <stop offset="1" stop-color="#ff8500"/>
    </linearGradient>
  </defs>
  <g id="music_ef" transform="translate(-356 -518)">
    <circle id="Ellipse_25" data-name="Ellipse 25" cx="35.5" cy="35.5" r="35.5" transform="translate(356 518)" fill="url(#linear-gradient)"/>
    <path id="musical-note_2_" data-name="musical-note (2)" d="M85.014,21.081a13.768,13.768,0,0,0,1.846-6.061,8.463,8.463,0,0,0-.893-4.205C84.919,8.667,83.119,7.461,81.38,6.3a12.97,12.97,0,0,1-3.392-2.864l-.156-.209A5.645,5.645,0,0,1,76.65,1.1,1.289,1.289,0,0,0,75.3,0a1.272,1.272,0,0,0-1.186,1.27V23.993a7.377,7.377,0,0,0-3.825-1.046c-3.514,0-6.375,2.287-6.375,5.1s2.861,5.1,6.375,5.1,6.375-2.287,6.375-5.1V13.186a9.178,9.178,0,0,1,5.911,6.949,7.192,7.192,0,0,1-.492.7,1.274,1.274,0,1,0,1.913,1.683A9.479,9.479,0,0,0,84.93,21.2.8.8,0,0,0,85.014,21.081Z" transform="translate(315.676 537.408)" fill="#fff"/>
  </g>
</svg>
