<svg xmlns="http://www.w3.org/2000/svg" xmlns:xlink="http://www.w3.org/1999/xlink" width="71" height="71" viewBox="0 0 71 71">
  <defs>
    <linearGradient id="linear-gradient" x1="0.5" y1="1" x2="0.5" gradientUnits="objectBoundingBox">
      <stop offset="0" stop-color="#f95500"/>
      <stop offset="1" stop-color="#ff8500"/>
    </linearGradient>
  </defs>
  <g id="river_ef" transform="translate(-104 -1554)">
    <circle id="Ellipse_29" data-name="Ellipse 29" cx="35.5" cy="35.5" r="35.5" transform="translate(104 1554)" fill="url(#linear-gradient)"/>
    <g id="flood" transform="translate(120.715 1551.877)">
      <path id="Path_32" data-name="Path 32" d="M7.408,31.327a8.345,8.345,0,0,0,5.9-2.462,8.308,8.308,0,0,0,11.8,0,8.313,8.313,0,0,0,13.105-1.7,1.5,1.5,0,1,0-2.6-1.5,5.313,5.313,0,0,1-9.2,0,1.5,1.5,0,0,0-2.6,0,5.313,5.313,0,0,1-9.2,0,1.5,1.5,0,0,0-1.3-.75h0a1.5,1.5,0,0,0-1.3.75,5.313,5.313,0,0,1-9.2,0,1.5,1.5,0,0,0-2.6,1.5A8.344,8.344,0,0,0,7.408,31.327Z" transform="translate(-0.002)" fill="#fff"/>
      <path id="Path_33" data-name="Path 33" d="M37.67,80.115a1.5,1.5,0,0,0-2.052.549,5.313,5.313,0,0,1-9.2,0,1.5,1.5,0,0,0-2.6,0,5.313,5.313,0,0,1-9.2,0,1.5,1.5,0,0,0-1.3-.75h0a1.5,1.5,0,0,0-1.3.75,5.313,5.313,0,0,1-9.2,0,1.5,1.5,0,1,0-2.6,1.5,8.313,8.313,0,0,0,13.106,1.7,8.308,8.308,0,0,0,11.8,0,8.313,8.313,0,0,0,13.105-1.7A1.5,1.5,0,0,0,37.67,80.115Z" transform="translate(0 -43.985)" fill="#fff"/>
      <path id="Path_34" data-name="Path 34" d="M37.67,135.115a1.5,1.5,0,0,0-2.052.549,5.313,5.313,0,0,1-9.2,0,1.5,1.5,0,0,0-2.6,0,5.313,5.313,0,0,1-9.2,0,1.5,1.5,0,0,0-1.3-.75h0a1.5,1.5,0,0,0-1.3.75,5.313,5.313,0,0,1-9.2,0,1.5,1.5,0,0,0-2.6,1.5,8.313,8.313,0,0,0,13.106,1.7,8.308,8.308,0,0,0,11.8,0,8.313,8.313,0,0,0,13.105-1.7A1.5,1.5,0,0,0,37.67,135.115Z" transform="translate(0 -87.971)" fill="#fff"/>
    </g>
  </g>
</svg>
