<svg xmlns="http://www.w3.org/2000/svg" width="74.998" height="74.998" viewBox="0 0 74.998 74.998">
  <path id="settings" d="M71.137,29.166H64.12a2.694,2.694,0,0,1-1.906-4.6l4.961-4.96a3.864,3.864,0,0,0,0-5.462L60.852,7.822a3.954,3.954,0,0,0-5.462,0l-4.96,4.96a2.606,2.606,0,0,1-1.878.8,2.8,2.8,0,0,1-1.894-.749,2.6,2.6,0,0,1-.826-1.953V3.861A3.865,3.865,0,0,0,41.971,0H33.027a3.865,3.865,0,0,0-3.861,3.861v7.016a2.686,2.686,0,0,1-2.724,2.7,2.612,2.612,0,0,1-1.876-.8l-4.96-4.96a3.954,3.954,0,0,0-5.462,0L7.821,14.145a3.864,3.864,0,0,0,0,5.462l4.961,4.96a2.694,2.694,0,0,1-1.9,4.6H3.861A3.865,3.865,0,0,0,0,33.027v8.941a3.867,3.867,0,0,0,3.861,3.864h7.016a2.694,2.694,0,0,1,1.906,4.6L7.822,55.39a3.864,3.864,0,0,0,0,5.462l6.323,6.323a3.951,3.951,0,0,0,5.462,0l4.96-4.96a2.606,2.606,0,0,1,1.878-.8,2.687,2.687,0,0,1,2.722,2.7v7.015A3.864,3.864,0,0,0,33.027,75H41.97a3.866,3.866,0,0,0,3.861-3.862V64.12a2.686,2.686,0,0,1,2.722-2.7,2.614,2.614,0,0,1,1.878.8l4.96,4.96a3.954,3.954,0,0,0,5.462,0l6.323-6.323a3.864,3.864,0,0,0,0-5.462l-4.961-4.96a2.694,2.694,0,0,1,1.905-4.6h7.016A3.866,3.866,0,0,0,75,41.97V33.027A3.865,3.865,0,0,0,71.137,29.166ZM47.221,37.5A9.722,9.722,0,1,1,37.5,27.777,9.734,9.734,0,0,1,47.221,37.5Z" fill="#8b92a7" opacity="0.46"/>
</svg>
