<svg xmlns="http://www.w3.org/2000/svg" xmlns:xlink="http://www.w3.org/1999/xlink" width="71" height="71" viewBox="0 0 71 71">
  <defs>
    <linearGradient id="linear-gradient" x1="0.5" y1="1" x2="0.5" gradientUnits="objectBoundingBox">
      <stop offset="0" stop-color="#f95500"/>
      <stop offset="1" stop-color="#ff8500"/>
    </linearGradient>
  </defs>
  <g id="snow" transform="translate(-104 -2072)">
    <circle id="Ellipse_31" data-name="Ellipse 31" cx="35.5" cy="35.5" r="35.5" transform="translate(104 2072)" fill="url(#linear-gradient)"/>
    <path id="snowflake" d="M37.98,16.844l-1.027-.822-2.432,3.04h-2.7l2.822-2.822-.929-.929-3.751,3.751h-.23l-3.819-1.909,1.335-4.007h4.3V11.832H28.537L30.509,9.86h4.329V8.545H31.824l2.3-2.3L33.2,5.311l-2.3,2.3V4.6H29.579V8.93L27.607,10.9V7.888H26.293v4.3l-4.007,1.335L20.377,9.7v-.23l3.751-3.751L23.2,4.794,20.377,7.616v-2.7l3.04-2.432L22.6,1.459,20.377,3.233V0H19.062V3.233L16.844,1.459l-.822,1.027,3.04,2.432v2.7L16.241,4.794l-.929.929,3.751,3.751V9.7l-1.909,3.819-4.007-1.335v-4.3H11.832V10.9L9.86,8.93V4.6H8.545V7.616l-2.3-2.3-.929.929,2.3,2.3H4.6V9.86H8.931L10.9,11.832H7.888v1.315h4.3l1.335,4.007L9.705,19.062h-.23L5.724,15.311l-.929.929,2.822,2.822h-2.7l-2.432-3.04-1.027.822,1.775,2.218H0v1.315H3.234L1.459,22.6l1.027.822,2.432-3.04h2.7L4.794,23.2l.929.929,3.751-3.751h.23l3.819,1.909-1.335,4.007h-4.3v1.315H10.9L8.931,29.579H4.6v1.315H7.616l-2.3,2.3.929.929,2.3-2.3v3.014H9.86V30.508l1.972-1.972v3.014h1.315v-4.3l4.007-1.335,1.909,3.819v.23l-3.751,3.751.929.929,2.822-2.822v2.7l-3.04,2.432.822,1.027,2.218-1.774v3.233h1.315V36.205L22.6,37.98l.822-1.027-3.04-2.432v-2.7L23.2,34.645l.929-.929-3.751-3.751v-.23l1.909-3.819,4.007,1.335v4.3h1.315V28.537l1.972,1.972v4.329h1.315V31.823l2.3,2.3.929-.929-2.3-2.3h3.014V29.579H30.509l-1.972-1.972h3.014V26.292h-4.3l-1.335-4.007,3.819-1.909h.23l3.751,3.751.929-.929-2.822-2.822h2.7l2.432,3.04L37.98,22.6l-1.775-2.218h3.234V19.062H36.205Zm0,0" transform="translate(120.281 2087.281)" fill="#fff"/>
  </g>
</svg>
