<svg xmlns="http://www.w3.org/2000/svg" xmlns:xlink="http://www.w3.org/1999/xlink" width="117" height="117" viewBox="0 0 117 117">
  <defs>
    <linearGradient id="linear-gradient" x1="0.5" x2="0.5" y2="1" gradientUnits="objectBoundingBox">
      <stop offset="0" stop-color="#f95500"/>
      <stop offset="1" stop-color="#ff8500"/>
    </linearGradient>
  </defs>
  <g id="unlock" transform="translate(-1046 -560)">
    <circle id="Ellipse_1" data-name="Ellipse 1" cx="58.5" cy="58.5" r="58.5" transform="translate(1046 560)" fill="url(#linear-gradient)"/>
    <path id="unlocked" d="M43.683,20.474V14.76C43.683,6.622,36.376,0,27.4,0S11.108,6.622,11.108,14.76a1.018,1.018,0,1,0,2.036,0c0-7.017,6.393-12.725,14.251-12.725S41.647,7.744,41.647,14.76v5.6H12.359A7.367,7.367,0,0,0,5,27.718V47.611a7.367,7.367,0,0,0,7.359,7.359H42.431a7.367,7.367,0,0,0,7.359-7.359V27.718A7.365,7.365,0,0,0,43.683,20.474ZM31.467,38.683a4.072,4.072,0,0,1-8.144,0V32.575a4.072,4.072,0,0,1,8.144,0Z" transform="translate(1076.986 591.184)" fill="#fff"/>
  </g>
</svg>
